<svg width="48" height="48" viewBox="0 0 48 48" fill="none" xmlns="http://www.w3.org/2000/svg">
    <circle cx="24" cy="24" r="23.5" fill="#F0E8D5" stroke="#2F4156"/>
    <path d="M20.2705 17.8542C20.2705 17.6939 20.3342 17.5403 20.4475 17.427C20.5608 17.3137 20.7144 17.25 20.8747 17.25H28.1247C28.2849 17.25 28.4386 17.3137 28.5519 17.427C28.6652 17.5403 28.7288 17.6939 28.7288 17.8542C28.7288 18.0144 28.6652 18.1681 28.5519 18.2814C28.4386 18.3947 28.2849 18.4583 28.1247 18.4583H20.8747C20.7144 18.4583 20.5608 18.3947 20.4475 18.2814C20.3342 18.1681 20.2705 18.0144 20.2705 17.8542ZM19.6663 24.5C19.3459 24.5 19.0385 24.6273 18.8119 24.8539C18.5853 25.0805 18.458 25.3879 18.458 25.7083C18.458 26.0288 18.5853 26.3361 18.8119 26.5628C19.0385 26.7894 19.3459 26.9167 19.6663 26.9167C19.9868 26.9167 20.2942 26.7894 20.5208 26.5628C20.7474 26.3361 20.8747 26.0288 20.8747 25.7083C20.8747 25.3879 20.7474 25.0805 20.5208 24.8539C20.2942 24.6273 19.9868 24.5 19.6663 24.5ZM29.333 24.5C29.0125 24.5 28.7052 24.6273 28.4786 24.8539C28.252 25.0805 28.1247 25.3879 28.1247 25.7083C28.1247 26.0288 28.252 26.3361 28.4786 26.5628C28.7052 26.7894 29.0125 26.9167 29.333 26.9167C29.6535 26.9167 29.9608 26.7894 30.1874 26.5628C30.414 26.3361 30.5413 26.0288 30.5413 25.7083C30.5413 25.3879 30.414 25.0805 30.1874 24.8539C29.9608 24.6273 29.6535 24.5 29.333 24.5ZM23.2913 25.7083C23.2913 25.3879 23.4186 25.0805 23.6453 24.8539C23.8719 24.6273 24.1792 24.5 24.4997 24.5C24.8201 24.5 25.1275 24.6273 25.3541 24.8539C25.5807 25.0805 25.708 25.3879 25.708 25.7083C25.708 26.0288 25.5807 26.3361 25.3541 26.5628C25.1275 26.7894 24.8201 26.9167 24.4997 26.9167C24.1792 26.9167 23.8719 26.7894 23.6453 26.5628C23.4186 26.3361 23.2913 26.0288 23.2913 25.7083ZM19.6663 29.3333C19.3459 29.3333 19.0385 29.4606 18.8119 29.6872C18.5853 29.9139 18.458 30.2212 18.458 30.5417C18.458 30.8621 18.5853 31.1695 18.8119 31.3961C19.0385 31.6227 19.3459 31.75 19.6663 31.75C19.9868 31.75 20.2942 31.6227 20.5208 31.3961C20.7474 31.1695 20.8747 30.8621 20.8747 30.5417C20.8747 30.2212 20.7474 29.9139 20.5208 29.6872C20.2942 29.4606 19.9868 29.3333 19.6663 29.3333ZM23.2913 30.5417C23.2913 30.2212 23.4186 29.9139 23.6453 29.6872C23.8719 29.4606 24.1792 29.3333 24.4997 29.3333C24.8201 29.3333 25.1275 29.4606 25.3541 29.6872C25.5807 29.9139 25.708 30.2212 25.708 30.5417C25.708 30.8621 25.5807 31.1695 25.3541 31.3961C25.1275 31.6227 24.8201 31.75 24.4997 31.75C24.1792 31.75 23.8719 31.6227 23.6453 31.3961C23.4186 31.1695 23.2913 30.8621 23.2913 30.5417Z" fill="#2F4156"/>
    <path d="M26.4614 13.625H22.5392C21.21 13.625 20.1733 13.625 19.3432 13.6927C18.4997 13.7615 17.8146 13.9041 17.1984 14.2171C16.175 14.7384 15.3429 15.5705 14.8216 16.5939C14.5074 17.2101 14.366 17.8952 14.2972 18.7387C14.2295 19.57 14.2295 20.6043 14.2295 21.9347V27.0653C14.2295 28.3945 14.2295 29.4312 14.2972 30.2613C14.366 31.1047 14.5086 31.7899 14.8216 32.4061C15.3429 33.4295 16.175 34.2616 17.1984 34.7829C17.8146 35.0971 18.4997 35.2385 19.3432 35.3073C20.1745 35.375 21.2088 35.375 22.5392 35.375H26.4614C27.7906 35.375 28.8274 35.375 29.6575 35.3073C30.5009 35.2385 31.186 35.0959 31.8023 34.7829C32.8257 34.2616 33.6577 33.4295 34.1791 32.4061C34.4932 31.7899 34.6346 31.1047 34.7035 30.2613C34.7712 29.4312 34.7712 28.3957 34.7712 27.0653V21.9347C34.7712 20.6055 34.7712 19.5688 34.7035 18.7387C34.6346 17.8952 34.492 17.2101 34.1791 16.5939C33.6577 15.5705 32.8257 14.7384 31.8023 14.2171C31.186 13.9029 30.5009 13.7615 29.6575 13.6927C28.8262 13.625 27.7918 13.625 26.4614 13.625ZM17.7457 15.2937C18.1638 15.081 18.6713 14.9602 19.441 14.8974C20.2168 14.8333 21.204 14.8333 22.567 14.8333H26.4337C27.7967 14.8333 28.7839 14.8333 29.5584 14.8974C30.3281 14.9602 30.8356 15.081 31.2537 15.2937C32.0497 15.6992 32.6969 16.3464 33.1024 17.1425C33.3151 17.5605 33.4359 18.068 33.4988 18.8378C33.5447 19.39 33.558 20.0485 33.5616 20.875H15.4378C15.4427 20.0485 15.4547 19.3888 15.5007 18.8378C15.5635 18.068 15.6843 17.5605 15.897 17.1425C16.3025 16.3464 16.9497 15.6992 17.7457 15.2937ZM15.4378 22.0833H33.5628V27.0375C33.5628 28.4005 33.5628 29.3877 33.4988 30.1623C33.4359 30.932 33.3151 31.4395 33.1024 31.8575C32.6969 32.6536 32.0497 33.3008 31.2537 33.7063C30.8356 33.919 30.3281 34.0398 29.5596 34.1026C28.7839 34.1667 27.7967 34.1667 26.4337 34.1667H22.567C21.204 34.1667 20.2168 34.1667 19.4422 34.1026C18.6725 34.0398 18.165 33.919 17.7469 33.7063C16.9509 33.3008 16.3037 32.6536 15.8982 31.8575C15.6855 31.4395 15.5647 30.932 15.5019 30.1635C15.4378 29.3877 15.4378 28.4005 15.4378 27.0375V22.0833Z" fill="#2F4156"/>
    <path fill-rule="evenodd" clip-rule="evenodd" d="M19.9684 17.8542C19.9684 17.6139 20.0639 17.3834 20.2339 17.2134C20.4038 17.0435 20.6343 16.948 20.8747 16.948H28.1247C28.365 16.948 28.5955 17.0435 28.7655 17.2134C28.9354 17.3834 29.0309 17.6139 29.0309 17.8542C29.0309 18.0946 28.9354 18.3251 28.7655 18.4951C28.5955 18.665 28.365 18.7605 28.1247 18.7605H20.8747C20.6343 18.7605 20.4038 18.665 20.2339 18.4951C20.0639 18.3251 19.9684 18.0946 19.9684 17.8542ZM18.1559 25.7084C18.1559 25.3078 18.3151 24.9236 18.5983 24.6404C18.8816 24.3571 19.2658 24.198 19.6663 24.198C20.0669 24.198 20.4511 24.3571 20.7344 24.6404C21.0176 24.9236 21.1768 25.3078 21.1768 25.7084C21.1768 26.109 21.0176 26.4932 20.7344 26.7764C20.4511 27.0597 20.0669 27.2188 19.6663 27.2188C19.2658 27.2188 18.8816 27.0597 18.5983 26.7764C18.3151 26.4932 18.1559 26.109 18.1559 25.7084ZM27.8226 25.7084C27.8226 25.3078 27.9817 24.9236 28.265 24.6404C28.5482 24.3571 28.9324 24.198 29.333 24.198C29.7336 24.198 30.1178 24.3571 30.401 24.6404C30.6843 24.9236 30.8434 25.3078 30.8434 25.7084C30.8434 26.109 30.6843 26.4932 30.401 26.7764C30.1178 27.0597 29.7336 27.2188 29.333 27.2188C28.9324 27.2188 28.5482 27.0597 28.265 26.7764C27.9817 26.4932 27.8226 26.109 27.8226 25.7084ZM22.9893 25.7084C22.9893 25.3078 23.1484 24.9236 23.4316 24.6404C23.7149 24.3571 24.0991 24.198 24.4997 24.198C24.9003 24.198 25.2844 24.3571 25.5677 24.6404C25.851 24.9236 26.0101 25.3078 26.0101 25.7084C26.0101 26.109 25.851 26.4932 25.5677 26.7764C25.2844 27.0597 24.9003 27.2188 24.4997 27.2188C24.0991 27.2188 23.7149 27.0597 23.4316 26.7764C23.1484 26.4932 22.9893 26.109 22.9893 25.7084ZM18.1559 30.5417C18.1559 30.1412 18.3151 29.757 18.5983 29.4737C18.8816 29.1905 19.2658 29.0313 19.6663 29.0313C20.0669 29.0313 20.4511 29.1905 20.7344 29.4737C21.0176 29.757 21.1768 30.1412 21.1768 30.5417C21.1768 30.9423 21.0176 31.3265 20.7344 31.6098C20.4511 31.893 20.0669 32.0522 19.6663 32.0522C19.2658 32.0522 18.8816 31.893 18.5983 31.6098C18.3151 31.3265 18.1559 30.9423 18.1559 30.5417ZM22.9893 30.5417C22.9893 30.1412 23.1484 29.757 23.4316 29.4737C23.7149 29.1905 24.0991 29.0313 24.4997 29.0313C24.9003 29.0313 25.2844 29.1905 25.5677 29.4737C25.851 29.757 26.0101 30.1412 26.0101 30.5417C26.0101 30.9423 25.851 31.3265 25.5677 31.6098C25.2844 31.893 24.9003 32.0522 24.4997 32.0522C24.0991 32.0522 23.7149 31.893 23.4316 31.6098C23.1484 31.3265 22.9893 30.9423 22.9893 30.5417ZM26.4741 13.323C27.7924 13.323 28.8388 13.323 29.681 13.3919C30.5438 13.462 31.2724 13.6094 31.9394 13.9477C33.0192 14.4985 33.8969 15.3771 34.4467 16.4574C34.7862 17.122 34.9336 17.8518 35.0037 18.7146C35.0726 19.5568 35.0726 20.6032 35.0726 21.9215V27.0787C35.0726 28.397 35.0726 29.4434 35.0037 30.2856C34.9336 31.1483 34.7862 31.877 34.4479 32.544C33.8974 33.6236 33.0193 34.5013 31.9394 35.0512C31.2724 35.3908 30.5438 35.5382 29.681 35.6083C28.8388 35.6772 27.7924 35.6772 26.4741 35.6772H22.5253C21.207 35.6772 20.1605 35.6772 19.3183 35.6083C18.4556 35.5382 17.727 35.3908 17.0612 35.0525C15.9811 34.5022 15.103 33.624 14.5527 32.544C14.2131 31.877 14.0657 31.1483 13.9956 30.2856C13.9268 29.4434 13.9268 28.397 13.9268 27.0787V21.9215C13.9268 20.6032 13.9268 19.5568 13.9956 18.7146C14.0657 17.8518 14.2131 17.1232 14.5515 16.4574C15.1021 15.3771 15.9806 14.499 17.0612 13.9489C17.7258 13.6094 18.4556 13.462 19.3183 13.3919C20.1605 13.323 21.207 13.323 22.5265 13.323H26.4741ZM19.4658 15.1983C18.7166 15.2587 18.2514 15.376 17.8828 15.5632C17.1441 15.9397 16.5435 16.5403 16.167 17.2791C15.9797 17.6476 15.8637 18.1128 15.8021 18.862C15.7634 19.3332 15.7489 19.8891 15.7417 20.573H33.2565C33.2569 20.0021 33.2372 19.4315 33.1973 18.862C33.1368 18.1128 33.0196 17.6476 32.8323 17.2791C32.4559 16.5403 31.8552 15.9397 31.1165 15.5632C30.748 15.376 30.2828 15.26 29.5336 15.1983C28.7723 15.1367 27.8008 15.1355 26.433 15.1355H22.5663C21.1973 15.1355 20.2258 15.1355 19.4658 15.1983ZM33.5585 20.573C33.5592 19.9941 33.539 19.4153 33.4981 18.8378C33.4353 18.0681 33.3145 17.5606 33.1018 17.1425C32.6963 16.3465 32.0491 15.6993 31.2531 15.2938C30.835 15.0811 30.3275 14.9603 29.559 14.8975C28.7832 14.8334 27.796 14.8334 26.433 14.8334H22.5663C21.2033 14.8334 20.2161 14.8334 19.4416 14.8975C18.6719 14.9603 18.1644 15.0811 17.7463 15.2938C16.9502 15.6993 16.3031 16.3465 15.8975 17.1425C15.6849 17.5606 15.564 18.0681 15.5012 18.8378C15.4613 19.3212 15.4468 19.8855 15.4408 20.573L15.4372 20.8751H33.5622L33.5585 20.573ZM33.2601 22.3855H15.7393V27.0376C15.7393 28.4066 15.7393 29.3781 15.8021 30.1382C15.8625 30.8873 15.9797 31.3525 16.167 31.7211C16.5435 32.4598 17.1441 33.0604 17.8828 33.4369C18.2514 33.6242 18.7166 33.7402 19.4658 33.8018C20.227 33.8635 21.1973 33.8647 22.5663 33.8647H26.433C27.8021 33.8647 28.7736 33.8647 29.5336 33.8018C30.2828 33.7414 30.748 33.6242 31.1165 33.4369C31.8552 33.0604 32.4559 32.4598 32.8323 31.7211C33.0196 31.3525 33.1356 30.8873 33.1973 30.1382C33.2589 29.3769 33.2601 28.4054 33.2601 27.0376V22.3855ZM22.5385 13.6251H26.4608C27.79 13.6251 28.8267 13.6251 29.6568 13.6927C30.5003 13.7616 31.1854 13.9042 31.8016 14.2172C32.825 14.7385 33.6571 15.5706 34.1784 16.594C34.4926 17.2102 34.634 17.8953 34.7028 18.7387C34.7705 19.5689 34.7705 20.6044 34.7705 21.9348V27.0654C34.7705 28.3945 34.7705 29.4313 34.7028 30.2614C34.634 31.1048 34.4914 31.79 34.1784 32.4062C33.6571 33.4296 32.825 34.2616 31.8016 34.783C31.1854 35.0972 30.5003 35.2385 29.6568 35.3074C28.8267 35.3751 27.7912 35.3751 26.4608 35.3751H22.5385C21.2094 35.3751 20.1726 35.3751 19.3425 35.3074C18.4991 35.2385 17.814 35.096 17.1977 34.783C16.1743 34.2616 15.3423 33.4296 14.8209 32.4062C14.5068 31.79 14.3654 31.1048 14.2965 30.2614C14.2288 29.4313 14.2288 28.3957 14.2288 27.0654V21.9348C14.2288 20.6056 14.2288 19.5689 14.2965 18.7387C14.3654 17.8953 14.508 17.2102 14.8209 16.594C15.3423 15.5706 16.1743 14.7385 17.1977 14.2172C17.814 13.903 18.4991 13.7616 19.3425 13.6927C20.1738 13.6251 21.2082 13.6251 22.5385 13.6251ZM15.4372 22.0834V27.0376C15.4372 28.4006 15.4372 29.3878 15.5012 30.1623C15.564 30.932 15.6849 31.4395 15.8975 31.8576C16.3031 32.6537 16.9502 33.3009 17.7463 33.7064C18.1644 33.919 18.6719 34.0399 19.4416 34.1027C20.2161 34.1667 21.2033 34.1667 22.5663 34.1667H26.433C27.796 34.1667 28.7832 34.1667 29.5578 34.1027C30.3275 34.0399 30.835 33.919 31.2531 33.7064C32.0491 33.3009 32.6963 32.6537 33.1018 31.8576C33.3145 31.4395 33.4353 30.932 33.4981 30.1635C33.5622 29.3878 33.5622 28.4006 33.5622 27.0376V22.0834H15.4372ZM20.2705 17.8542C20.2705 17.694 20.3342 17.5403 20.4475 17.427C20.5608 17.3137 20.7144 17.2501 20.8747 17.2501H28.1247C28.2849 17.2501 28.4386 17.3137 28.5519 17.427C28.6652 17.5403 28.7288 17.694 28.7288 17.8542C28.7288 18.0145 28.6652 18.1682 28.5519 18.2815C28.4386 18.3948 28.2849 18.4584 28.1247 18.4584H20.8747C20.7144 18.4584 20.5608 18.3948 20.4475 18.2815C20.3342 18.1682 20.2705 18.0145 20.2705 17.8542ZM19.6663 24.5001C19.3459 24.5001 19.0385 24.6274 18.8119 24.854C18.5853 25.0806 18.458 25.3879 18.458 25.7084C18.458 26.0289 18.5853 26.3362 18.8119 26.5628C19.0385 26.7894 19.3459 26.9167 19.6663 26.9167C19.9868 26.9167 20.2942 26.7894 20.5208 26.5628C20.7474 26.3362 20.8747 26.0289 20.8747 25.7084C20.8747 25.3879 20.7474 25.0806 20.5208 24.854C20.2942 24.6274 19.9868 24.5001 19.6663 24.5001ZM28.1247 25.7084C28.1247 25.3879 28.252 25.0806 28.4786 24.854C28.7052 24.6274 29.0125 24.5001 29.333 24.5001C29.6535 24.5001 29.9608 24.6274 30.1874 24.854C30.414 25.0806 30.5413 25.3879 30.5413 25.7084C30.5413 26.0289 30.414 26.3362 30.1874 26.5628C29.9608 26.7894 29.6535 26.9167 29.333 26.9167C29.0125 26.9167 28.7052 26.7894 28.4786 26.5628C28.252 26.3362 28.1247 26.0289 28.1247 25.7084ZM23.2913 25.7084C23.2913 25.3879 23.4186 25.0806 23.6453 24.854C23.8719 24.6274 24.1792 24.5001 24.4997 24.5001C24.8201 24.5001 25.1275 24.6274 25.3541 24.854C25.5807 25.0806 25.708 25.3879 25.708 25.7084C25.708 26.0289 25.5807 26.3362 25.3541 26.5628C25.1275 26.7894 24.8201 26.9167 24.4997 26.9167C24.1792 26.9167 23.8719 26.7894 23.6453 26.5628C23.4186 26.3362 23.2913 26.0289 23.2913 25.7084ZM18.458 30.5417C18.458 30.2213 18.5853 29.9139 18.8119 29.6873C19.0385 29.4607 19.3459 29.3334 19.6663 29.3334C19.9868 29.3334 20.2942 29.4607 20.5208 29.6873C20.7474 29.9139 20.8747 30.2213 20.8747 30.5417C20.8747 30.8622 20.7474 31.1696 20.5208 31.3962C20.2942 31.6228 19.9868 31.7501 19.6663 31.7501C19.3459 31.7501 19.0385 31.6228 18.8119 31.3962C18.5853 31.1696 18.458 30.8622 18.458 30.5417ZM23.2913 30.5417C23.2913 30.2213 23.4186 29.9139 23.6453 29.6873C23.8719 29.4607 24.1792 29.3334 24.4997 29.3334C24.8201 29.3334 25.1275 29.4607 25.3541 29.6873C25.5807 29.9139 25.708 30.2213 25.708 30.5417C25.708 30.8622 25.5807 31.1696 25.3541 31.3962C25.1275 31.6228 24.8201 31.7501 24.4997 31.7501C24.1792 31.7501 23.8719 31.6228 23.6453 31.3962C23.4186 31.1696 23.2913 30.8622 23.2913 30.5417Z" fill="#2F4156"/>
</svg>
