<svg width="44" height="44" viewBox="0 0 44 44" fill="none" xmlns="http://www.w3.org/2000/svg">
    <circle cx="21.7439" cy="21.7439" r="21.2439" fill="#F0E8D5" stroke="#2F4156"/>
    <path d="M22.1257 16.1172H24.1285M22.1257 20.1226H24.1285M14.1148 24.1281H24.1285M14.1148 28.1335H24.1285M28.1339 16.1172H32.6401C33.4692 16.1172 34.1421 16.7901 34.1421 17.6192V30.1363C34.1421 30.933 33.8256 31.6971 33.2622 32.2605C32.6988 32.8238 31.9347 33.1404 31.138 33.1404M28.1339 16.1172V30.1363C28.1339 30.933 28.4504 31.6971 29.0138 32.2605C29.5772 32.8238 30.3413 33.1404 31.138 33.1404M28.1339 16.1172V12.6124C28.1339 11.7833 27.461 11.1104 26.6319 11.1104H11.6114C10.7823 11.1104 10.1094 11.7833 10.1094 12.6124V30.1363C10.1094 30.933 10.4259 31.6971 10.9893 32.2605C11.5526 32.8238 12.3167 33.1404 13.1135 33.1404H31.138M14.1148 16.1172H18.1203V20.1226H14.1148V16.1172Z" stroke="#2F4156" stroke-width="2" stroke-linecap="round" stroke-linejoin="round"/>
</svg>
